<svg width="750" height="250" viewBox="0 0 69 22" fill="none" xmlns="http://www.w3.org/2000/svg">
<path fill-rule="evenodd" clip-rule="evenodd" d="M20.9126 1.00927C20.9904 1.00034 21.0689 0.997864 21.1474 1.00183C21.1659 1.002 21.184 1.00274 21.2016 1.00381C21.2299 1.00547 21.2573 1.00811 21.2787 1.01009L21.2843 1.01059H21.2911L21.3019 1.01224L21.3452 1.01638L21.3523 1.02009C21.3632 1.02175 21.3743 1.02348 21.3853 1.02522L21.3892 1.0258L21.3931 1.02654C21.393 1.02646 21.3933 1.02654 21.3931 1.02654C21.5463 1.05423 21.6963 1.10257 21.8374 1.17117C22.1028 1.29935 22.3189 1.48968 22.4737 1.71464C22.5392 1.80943 22.5945 1.91175 22.638 2.02026C22.6783 2.1215 22.7076 2.22671 22.7256 2.32952L25.972 19.1179C26.136 19.9651 25.5623 20.8045 24.6501 20.9712C23.7308 21.1391 22.8738 20.5494 22.7092 19.6989L20.685 9.23207L17.2538 19.8774C16.9861 20.7081 16.06 21.1945 15.1687 20.9254C14.2856 20.6588 13.8176 19.7621 14.0832 18.9377L16.2342 12.264L10.5335 20.3036C10.0184 21.0296 8.97768 21.2244 8.21416 20.7145C7.46307 20.2128 7.28072 19.2303 7.7895 18.5133L10.9832 14.0088C9.39744 15.4558 7.89643 16.8255 6.6808 17.9349C5.81746 18.7228 5.09803 19.3794 4.59449 19.839L3.80335 20.561C3.80335 20.561 3.80319 20.5611 3.58798 20.3648L3.80335 20.561C3.13376 21.1712 2.07329 21.14 1.44482 20.4924C0.825737 19.8545 0.856226 18.857 1.51526 18.2542L19.8911 1.48737C20.0886 1.28952 20.3315 1.15001 20.593 1.07224C20.6501 1.05497 20.7081 1.041 20.7667 1.03034C20.7742 1.02861 20.7816 1.02712 20.7887 1.02596C20.7992 1.02373 20.8132 1.02125 20.83 1.01952C20.8414 1.01778 20.8545 1.01605 20.8686 1.01456C20.8822 1.01274 20.896 1.01109 20.9097 1.0096L20.9114 1.00935L20.9126 1.00927ZM18.2298 3.78869L1.94601 18.6466C1.51509 19.0407 1.49364 19.7049 1.9004 20.124C2.2977 20.5334 2.95251 20.5513 3.37286 20.1683M3.37286 20.1683L4.16417 19.4461C4.66771 18.9865 5.38714 18.33 6.25057 17.5421C7.9716 15.9714 10.2648 13.8788 12.5606 11.784L18.2298 3.78869M13.054 12.1106L8.3004 18.8152C7.96129 19.2931 8.09128 19.944 8.57354 20.2661C9.04339 20.5798 9.68984 20.4706 10.0227 20.0016L16.8384 10.3896L18.9748 3.76042L13.054 12.1106ZM20.0782 2.30547L17.4099 10.585L14.667 19.0944C14.4861 19.6559 14.8143 20.2333 15.3599 20.398C15.8971 20.5602 16.491 20.2759 16.6698 19.7207L22.0898 2.90513C22.1421 2.74332 22.152 2.57869 22.1252 2.42075L22.1208 2.39737C22.1082 2.33233 22.0898 2.27026 22.0664 2.21117C22.0172 2.09042 21.9437 1.9758 21.8464 1.87555C21.8127 1.84075 21.7771 1.80869 21.7403 1.77985C21.7257 1.76844 21.7109 1.75753 21.6958 1.74695C21.6883 1.74282 21.681 1.73836 21.6738 1.73357C21.5814 1.67191 21.4834 1.62712 21.3832 1.59753C21.3496 1.58786 21.3141 1.57952 21.2757 1.57167C21.2687 1.57059 21.2617 1.56952 21.2547 1.56844C21.2498 1.5677 21.2449 1.56695 21.24 1.56613H21.2301L21.2073 1.56299C21.1901 1.56059 21.1747 1.55894 21.1609 1.55811C21.1515 1.55753 21.1439 1.55737 21.1376 1.55737H21.13L21.1224 1.55695C21.0765 1.55489 21.0306 1.55621 20.9853 1.56084L20.9504 1.56514L20.9477 1.56547L20.9465 1.56563C20.9381 1.56671 20.93 1.56778 20.9219 1.56885C20.9182 1.56952 20.9139 1.57026 20.9084 1.57125C20.9081 1.57133 20.9077 1.57142 20.9073 1.5715L20.9002 1.57282L20.8976 1.57332L20.8951 1.57373C20.8921 1.57423 20.8892 1.57481 20.8862 1.5753C20.8379 1.58456 20.7901 1.5972 20.7434 1.61307C20.654 1.64431 20.5697 1.68629 20.4927 1.73852C20.4926 1.73861 20.4928 1.73852 20.4927 1.73852C20.4889 1.74117 20.3539 1.85233 20.3501 1.85497M20.0782 2.30547L20.0867 2.28009L20.0876 2.27753C20.0995 2.23985 20.1137 2.20381 20.1309 2.16547C20.1843 2.04919 20.2588 1.94431 20.3501 1.85497M22.4084 3.88513L21.0713 8.03372L23.3085 19.6023C23.4197 20.1766 23.9789 20.5273 24.5306 20.4264C25.0893 20.3244 25.4845 19.7921 25.3727 19.2146L22.4084 3.88513ZM20.8601 1.01572C20.8514 1.01687 20.8425 1.01803 20.8336 1.01919L20.8601 1.01572Z" fill="white"/>
<path d="M21.3931 1.02654L21.3892 1.0258L21.3853 1.02522C21.3743 1.02348 21.3632 1.02175 21.3523 1.02009L21.3452 1.01638L21.3019 1.01224L21.2911 1.01059H21.2843L21.2787 1.01009C21.2573 1.00811 21.2299 1.00547 21.2016 1.00381C21.184 1.00274 21.1659 1.002 21.1474 1.00183C21.0689 0.997864 20.9904 1.00034 20.9126 1.00927L20.9114 1.00935L20.9097 1.0096C20.896 1.01109 20.8822 1.01274 20.8686 1.01456C20.8545 1.01605 20.8414 1.01778 20.83 1.01952C20.8132 1.02125 20.7992 1.02373 20.7887 1.02596C20.7816 1.02712 20.7742 1.02861 20.7667 1.03034C20.7081 1.041 20.6501 1.05497 20.593 1.07224C20.3315 1.15001 20.0886 1.28952 19.8911 1.48737L1.51526 18.2542C0.856226 18.857 0.825737 19.8545 1.44482 20.4924C2.07329 21.14 3.13376 21.1712 3.80335 20.561M21.3931 1.02654C21.3933 1.02654 21.393 1.02646 21.3931 1.02654ZM21.3931 1.02654C21.5463 1.05423 21.6963 1.10257 21.8374 1.17117C22.1028 1.29935 22.3189 1.48968 22.4737 1.71464C22.5392 1.80943 22.5945 1.91175 22.638 2.02026C22.6783 2.1215 22.7076 2.22671 22.7256 2.32952L25.972 19.1179C26.136 19.9651 25.5623 20.8045 24.6501 20.9712C23.7308 21.1391 22.8738 20.5494 22.7092 19.6989L20.685 9.23207L17.2538 19.8774C16.9861 20.7081 16.06 21.1945 15.1687 20.9254C14.2856 20.6588 13.8176 19.7621 14.0832 18.9377L16.2342 12.264L10.5335 20.3036C10.0184 21.0296 8.97768 21.2244 8.21416 20.7145C7.46307 20.2128 7.28072 19.2303 7.7895 18.5133L10.9832 14.0088C9.39744 15.4558 7.89643 16.8255 6.6808 17.9349C5.81746 18.7228 5.09803 19.3794 4.59449 19.839L3.80335 20.561M3.80335 20.561C3.80335 20.561 3.80319 20.5611 3.58798 20.3648L3.80335 20.561ZM20.4927 1.73852C20.5697 1.68629 20.654 1.64431 20.7434 1.61307C20.7901 1.5972 20.8379 1.58456 20.8862 1.5753C20.8892 1.57481 20.8921 1.57423 20.8951 1.57373L20.8976 1.57332L20.9002 1.57282L20.9073 1.5715C20.9077 1.57142 20.9081 1.57133 20.9084 1.57125C20.9139 1.57026 20.9182 1.56952 20.9219 1.56885C20.93 1.56778 20.9381 1.56671 20.9465 1.56563L20.9477 1.56547L20.9504 1.56514L20.9853 1.56084C21.0306 1.55621 21.0765 1.55489 21.1224 1.55695L21.13 1.55737H21.1376C21.1439 1.55737 21.1515 1.55753 21.1609 1.55811C21.1747 1.55894 21.1901 1.56059 21.2073 1.56299L21.2301 1.56613H21.24C21.2449 1.56695 21.2498 1.5677 21.2547 1.56844C21.2617 1.56952 21.2687 1.57059 21.2757 1.57167C21.3141 1.57952 21.3496 1.58786 21.3832 1.59753C21.4834 1.62712 21.5814 1.67191 21.6738 1.73357C21.681 1.73836 21.6883 1.74282 21.6958 1.74695C21.7109 1.75753 21.7257 1.76844 21.7403 1.77985C21.7771 1.80869 21.8127 1.84075 21.8464 1.87555C21.9437 1.9758 22.0172 2.09042 22.0664 2.21117C22.0898 2.27026 22.1082 2.33233 22.1208 2.39737L22.1252 2.42075C22.152 2.57869 22.1421 2.74332 22.0898 2.90513L16.6698 19.7207C16.491 20.2759 15.8971 20.5602 15.3599 20.398C14.8143 20.2333 14.4861 19.6559 14.667 19.0944L17.4099 10.585L20.0782 2.30547L20.0867 2.28009L20.0876 2.27753C20.0995 2.23985 20.1137 2.20381 20.1309 2.16547C20.1843 2.04919 20.2588 1.94431 20.3501 1.85497C20.3539 1.85233 20.4889 1.74117 20.4927 1.73852ZM20.4927 1.73852C20.4926 1.73861 20.4928 1.73852 20.4927 1.73852ZM20.8244 1.02043L20.8231 1.02059M18.2298 3.78869L1.94601 18.6466C1.51509 19.0407 1.49364 19.7049 1.9004 20.124C2.2977 20.5334 2.95251 20.5513 3.37286 20.1683L4.16417 19.4461C4.66771 18.9865 5.38714 18.33 6.25057 17.5421C7.9716 15.9714 10.2648 13.8788 12.5606 11.784L18.2298 3.78869ZM13.054 12.1106L8.3004 18.8152C7.96129 19.2931 8.09128 19.944 8.57354 20.2661C9.04339 20.5798 9.68984 20.4706 10.0227 20.0016L16.8384 10.3896L18.9748 3.76042L13.054 12.1106ZM22.4084 3.88513L21.0713 8.03372L23.3085 19.6023C23.4197 20.1766 23.9789 20.5273 24.5306 20.4264C25.0893 20.3244 25.4845 19.7921 25.3727 19.2146L22.4084 3.88513ZM20.8601 1.01572C20.8514 1.01687 20.8425 1.01803 20.8336 1.01919L20.8601 1.01572Z" stroke="white" stroke-width="0.5"/>
<path d="M44.8417 20.6343V17.1243C43.7266 19.5375 41.4244 21 38.4748 21C34.5539 21 32 18.7697 32 15.2962C32 11.5302 34.9497 9.55574 40.705 9.55574C41.8561 9.55574 42.7194 9.62887 44.5899 9.77513V8.16635C44.5899 4.94878 42.8993 3.04756 40.0216 3.04756C36.9281 3.04756 34.9856 4.98539 34.9497 8.12983H32.6475C32.7554 3.85191 35.6691 1 39.9856 1C44.41 1 47 3.63252 47 8.09322V20.6343H44.8417ZM34.4101 15.223C34.4101 17.563 36.1727 19.1353 38.8345 19.1353C42.3597 19.1353 44.5899 16.7952 44.5899 13.1755V11.457C42.9712 11.3108 41.8561 11.2743 40.8129 11.2743C36.4964 11.2743 34.4101 12.5539 34.4101 15.223Z" fill="white"/>
<path d="M59.9821 21C54.7724 21 51 16.7875 51 10.9634C51 5.17589 54.7724 1 59.9821 1C65.2276 1 69 5.17589 69 10.9634C69 16.7875 65.2276 21 59.9821 21ZM59.9821 18.7656C63.6826 18.7656 66.4491 15.7619 66.4491 10.9634C66.4491 6.23809 63.6826 3.23443 59.9821 3.23443C56.3174 3.23443 53.5509 6.23809 53.5509 10.9634C53.5509 15.7619 56.3174 18.7656 59.9821 18.7656Z" fill="white"/>
</svg>
