<svg width="23" height="20" viewBox="0 0 23 20" fill="none" xmlns="http://www.w3.org/2000/svg">
<path d="M18.6918 1.21411C18.5528 1.11451 18.4005 1.0505 18.2448 1.02032M17.8183 1.02094C17.774 1.02961 17.7307 1.04079 17.6885 1.05432M17.8183 1.02094C17.821 1.02042 17.8236 1.01988 17.8263 1.01935M17.8183 1.02094L17.8263 1.01935M17.7498 7.23943L19.1468 2.57905C19.2033 2.39081 19.2136 2.19903 19.1844 2.01695M17.7498 7.23943L19.6866 18.0076C19.8053 18.6678 20.4149 19.1026 21.0482 18.9788C21.6814 18.8551 22.0985 18.2195 21.9798 17.5594L19.1844 2.01695M17.7498 7.23943L14.4804 18.1462C14.2882 18.7874 13.6339 19.1447 13.0189 18.9443C12.4039 18.744 12.0612 18.0618 12.2534 17.4207L14.6148 9.54305M19.1844 2.01695L19.1799 1.99217C19.1665 1.91716 19.1466 1.84507 19.1211 1.77639M19.1844 2.01695C19.1715 1.93523 19.1504 1.85459 19.1211 1.77639M14.6148 9.54305L8.72606 18.4725C8.36104 19.026 7.63473 19.1662 7.1038 18.7857C6.57287 18.4051 6.43837 17.648 6.80339 17.0945L10.8961 10.8885M14.6148 9.54305L16.9126 1.87765M10.8961 10.8885L17.0695 1.52729C17.1068 1.47077 17.1479 1.41855 17.1921 1.37076M10.8961 10.8885C6.9297 14.7802 2.96617 18.6691 2.96617 18.6691C2.49699 19.1295 1.75867 19.1061 1.31709 18.617C0.875507 18.1279 0.89788 17.3582 1.36706 16.8979L17.1921 1.37076M17.1921 1.37076L17.233 1.33067C17.2388 1.3249 17.2449 1.31935 17.2509 1.31381M17.1921 1.37076C17.332 1.21958 17.5039 1.11332 17.6885 1.05432M17.1921 1.37076C17.3663 1.18251 17.5898 1.06329 17.8263 1.01935M17.8424 1.01623C17.8371 1.01716 17.8317 1.01825 17.8263 1.01935M17.8424 1.01623C17.854 1.01426 17.8656 1.01246 17.8772 1.01085M17.8424 1.01623L17.8263 1.01935M17.6885 1.05432C17.5254 1.1067 17.3798 1.19423 17.2581 1.30718M17.6885 1.05432C17.5336 1.10402 17.3866 1.18812 17.2581 1.30718M17.6885 1.05432C17.5298 1.10567 17.3828 1.1919 17.2581 1.30718M17.6885 1.05432C17.7336 1.03975 17.7796 1.02816 17.8263 1.01935M17.2581 1.30718L17.2509 1.31381M17.2581 1.30718C17.1363 1.41988 17.0359 1.56033 16.9668 1.72308M17.2581 1.30718C17.1337 1.42269 17.0343 1.56479 16.9668 1.72308M17.2581 1.30718C17.2557 1.3094 17.2533 1.3116 17.2509 1.31381M16.9668 1.72308C16.9455 1.77309 16.9273 1.82473 16.9126 1.87765M16.9668 1.72308C16.949 1.76511 16.9333 1.80863 16.9198 1.85354L16.9126 1.87765M16.9668 1.72308C17.033 1.56783 17.1299 1.4281 17.2509 1.31381M16.9668 1.72308C17.0345 1.56353 17.1323 1.42536 17.2509 1.31381M19.1211 1.77639C19.0681 1.63442 18.9883 1.50049 18.882 1.38276C18.7051 1.1868 18.4806 1.0656 18.2448 1.02032M19.1211 1.77639C18.9738 1.37923 18.6375 1.09585 18.2448 1.02032M19.1211 1.77639C18.997 1.44341 18.7338 1.17031 18.3813 1.05547C18.3359 1.04069 18.2904 1.02906 18.2448 1.02032M18.2448 1.02032C18.2252 1.01656 18.2055 1.01332 18.1857 1.0106C18.1822 1.01011 18.1787 1.00966 18.1751 1.0092M18.1751 1.0092L18.1721 1.0088C18.1399 1.00473 18.1077 1.00215 18.0757 1.00088M18.1751 1.0092C18.1423 1.005 18.1091 1.0022 18.0757 1.00088M17.8263 1.01935C17.8432 1.0162 17.8602 1.01332 17.8772 1.01085M18.0757 1.00088C18.0215 0.998743 17.9677 1.00049 17.9146 1.00614C17.9021 1.00745 17.8896 1.00904 17.8772 1.01085M18.0757 1.00088C18.0092 0.998326 17.9428 1.00172 17.8772 1.01085" stroke="white" stroke-linecap="round"/>
</svg>
